<svg width="431" height="108" viewBox="0 0 431 108" fill="none" xmlns="http://www.w3.org/2000/svg">
<rect x="1" y="1" width="429" height="106" rx="22" fill="#3E0857" stroke="#FDFDFD" stroke-width="2"/>
<path d="M131.695 60.0938H117.398L114.188 69H109.547L122.578 34.875H126.516L139.57 69H134.953L131.695 60.0938ZM118.758 56.3906H130.359L124.547 40.4297L118.758 56.3906ZM169.078 64.5234C167.922 66.1797 166.305 67.4219 164.227 68.25C162.164 69.0625 159.758 69.4688 157.008 69.4688C154.227 69.4688 151.758 68.8203 149.602 67.5234C147.445 66.2109 145.773 64.3516 144.586 61.9453C143.414 59.5391 142.812 56.75 142.781 53.5781V50.6016C142.781 45.4609 143.977 41.4766 146.367 38.6484C148.773 35.8203 152.148 34.4062 156.492 34.4062C160.055 34.4062 162.922 35.3203 165.094 37.1484C167.266 38.9609 168.594 41.5391 169.078 44.8828H164.578C163.734 40.3672 161.047 38.1094 156.516 38.1094C153.5 38.1094 151.211 39.1719 149.648 41.2969C148.102 43.4062 147.32 46.4688 147.305 50.4844V53.2734C147.305 57.1016 148.18 60.1484 149.93 62.4141C151.68 64.6641 154.047 65.7891 157.031 65.7891C158.719 65.7891 160.195 65.6016 161.461 65.2266C162.727 64.8516 163.773 64.2188 164.602 63.3281V55.6641H156.703V52.0078H169.078V64.5234ZM189.117 55.1953H181.102V69H176.578V34.875H187.875C191.719 34.875 194.672 35.75 196.734 37.5C198.812 39.25 199.852 41.7969 199.852 45.1406C199.852 47.2656 199.273 49.1172 198.117 50.6953C196.977 52.2734 195.383 53.4531 193.336 54.2344L201.352 68.7188V69H196.523L189.117 55.1953ZM181.102 51.5156H188.016C190.25 51.5156 192.023 50.9375 193.336 49.7812C194.664 48.625 195.328 47.0781 195.328 45.1406C195.328 43.0312 194.695 41.4141 193.43 40.2891C192.18 39.1641 190.367 38.5938 187.992 38.5781H181.102V51.5156ZM225.469 53.2266H210.68V65.3203H227.859V69H206.18V34.875H227.625V38.5781H210.68V49.5469H225.469V53.2266ZM258.656 64.5234C257.5 66.1797 255.883 67.4219 253.805 68.25C251.742 69.0625 249.336 69.4688 246.586 69.4688C243.805 69.4688 241.336 68.8203 239.18 67.5234C237.023 66.2109 235.352 64.3516 234.164 61.9453C232.992 59.5391 232.391 56.75 232.359 53.5781V50.6016C232.359 45.4609 233.555 41.4766 235.945 38.6484C238.352 35.8203 241.727 34.4062 246.07 34.4062C249.633 34.4062 252.5 35.3203 254.672 37.1484C256.844 38.9609 258.172 41.5391 258.656 44.8828H254.156C253.312 40.3672 250.625 38.1094 246.094 38.1094C243.078 38.1094 240.789 39.1719 239.227 41.2969C237.68 43.4062 236.898 46.4688 236.883 50.4844V53.2734C236.883 57.1016 237.758 60.1484 239.508 62.4141C241.258 64.6641 243.625 65.7891 246.609 65.7891C248.297 65.7891 249.773 65.6016 251.039 65.2266C252.305 64.8516 253.352 64.2188 254.18 63.3281V55.6641H246.281V52.0078H258.656V64.5234ZM285.023 60.0938H270.727L267.516 69H262.875L275.906 34.875H279.844L292.898 69H288.281L285.023 60.0938ZM272.086 56.3906H283.688L277.875 40.4297L272.086 56.3906ZM310.008 55.1953H301.992V69H297.469V34.875H308.766C312.609 34.875 315.562 35.75 317.625 37.5C319.703 39.25 320.742 41.7969 320.742 45.1406C320.742 47.2656 320.164 49.1172 319.008 50.6953C317.867 52.2734 316.273 53.4531 314.227 54.2344L322.242 68.7188V69H317.414L310.008 55.1953ZM301.992 51.5156H308.906C311.141 51.5156 312.914 50.9375 314.227 49.7812C315.555 48.625 316.219 47.0781 316.219 45.1406C316.219 43.0312 315.586 41.4141 314.32 40.2891C313.07 39.1641 311.258 38.5938 308.883 38.5781H301.992V51.5156Z" fill="white"/>
</svg>
