<svg width="158" height="149" viewBox="0 0 158 149" fill="none" xmlns="http://www.w3.org/2000/svg">
<path d="M152.167 85.3406C152.862 97.3324 147.379 108.86 137.571 115.9L143.517 127.428C145.293 130.91 145.525 135.01 143.981 138.646C142.513 142.282 139.502 145.145 135.795 146.383L129.694 148.317C127.153 149.174 124.411 149.226 121.84 148.464C119.27 147.703 116.996 146.165 115.33 144.062L98.9579 124.72C92.0848 123.56 85.5978 120.62 80.1148 116.21C76.2535 117.37 72.3922 117.989 68.5309 117.989C61.735 117.989 54.9391 115.9 49.2244 111.877C45.1315 113.115 40.9613 113.657 36.7138 113.579C30.613 113.657 24.5894 112.419 18.9519 110.098C13.5255 107.672 8.88884 103.768 5.57078 98.8294C2.25271 93.8911 0.386831 88.118 0.185965 82.1686C-0.431843 76.5982 0.494869 70.9504 2.88887 65.8442C0.64932 60.0417 0.417642 53.6977 2.34829 47.8178C5.20565 40.468 10.6115 34.356 17.3301 30.4877C21.8092 17.4127 34.397 8.6703 48.2205 9.5987C60.5766 -2.00629 79.497 -3.24416 93.2432 6.73613C96.4867 5.8851 99.8846 5.4209 103.283 5.4209C113.785 5.1888 123.747 9.8308 130.312 18.109C146.066 22.2095 157.341 36.2902 157.959 52.6919C158.345 61.2796 156.028 69.7125 151.317 76.9076C151.858 79.6928 152.167 82.478 152.167 85.3406ZM113.554 74.4319C117.955 74.9735 121.431 78.3002 121.431 82.7101C121.431 84.762 120.617 86.7299 119.169 88.1808C117.72 89.6317 115.756 90.4468 113.708 90.4468H108.843C106.372 97.4098 102.047 103.522 96.3322 108.164C98.2629 108.86 100.271 109.247 102.279 109.788C141.896 109.247 137.262 85.0311 137.262 84.6443C137.057 79.33 134.753 74.3148 130.857 70.7021C126.962 67.0894 121.793 65.175 116.488 65.38C114.44 65.38 112.476 64.5649 111.028 63.114C109.579 61.6631 108.766 59.6952 108.766 57.6434C108.766 55.5915 109.579 53.6236 111.028 52.1727C112.476 50.7218 114.44 49.9067 116.488 49.9067C125.987 50.1388 135.1 53.6977 142.204 59.9644C142.591 57.7207 142.822 55.3997 142.822 53.0787C142.359 43.4853 138.034 35.1297 120.658 33.505C111.005 10.6045 86.679 23.2926 86.679 30.4103C86.4473 32.1897 88.3007 35.9807 88.6096 36.2128C90.6578 36.2128 92.6221 37.0279 94.0703 38.4788C95.5186 39.9297 96.3322 41.8976 96.3322 43.9495C96.3322 48.2046 92.8571 51.6861 88.6096 51.6861C84.5167 51.5314 80.6554 49.9841 77.5663 47.3536C73.8595 49.752 69.6121 51.2219 65.2102 51.6861C60.8083 52.073 57.1787 48.9783 56.947 44.7231C56.8047 43.7125 56.8702 42.6834 57.1393 41.6991C57.4083 40.7147 57.8754 39.7958 58.5119 38.9988C59.1483 38.2019 59.9406 37.5436 60.8401 37.0645C61.7397 36.5854 62.7275 36.2956 63.7429 36.2128C64.9785 36.0581 71.0021 35.1297 71.0021 30.2556C71.0021 25.1494 72.9328 20.2753 76.2535 16.407C69.1487 14.4728 61.5033 17.0259 53.7808 26.3872C39.5712 24.1436 33.7792 26.0778 29.5318 41.1643C22.1954 44.8005 18.3341 47.3536 16.6351 55.0903C24.9755 53.3882 33.5476 54.0845 41.5018 57.0244C45.3631 58.4944 47.5255 62.8269 46.0582 67.0047C44.5909 71.0278 40.1118 73.0393 36.096 71.5693C30.4585 69.0936 24.126 68.9389 18.3341 71.1051C15.8628 73.194 15.8628 77.5266 15.8628 80.9307C15.8628 86.6558 18.7202 91.9941 23.5854 95.0888C27.6784 97.1777 32.2347 98.2608 36.791 98.1835C35.6327 96.1719 34.6287 94.083 33.7792 91.9168C33.1713 89.929 33.3565 87.7825 34.2958 85.9288C35.2352 84.075 36.8556 82.6585 38.8161 81.977C40.7767 81.2956 42.9246 81.4024 44.8081 82.275C46.6917 83.1476 48.164 84.718 48.9155 86.6558C52.0046 95.4756 59.8816 101.51 69.1487 102.516C79.7287 101.974 89.1502 95.7077 93.7838 86.0369C95.56 75.3603 104.132 74.4319 113.554 74.4319ZM128.999 132.225L124.211 122.167L118.728 123.405L126.45 133.076L128.999 132.225V132.225ZM93.0887 65.6121C93.1559 63.6357 92.465 61.7086 91.158 60.2266C89.8511 58.7445 88.0272 57.8202 86.0612 57.6434C80.5782 57.3339 75.2496 59.1907 71.1566 62.8269C66.7547 67.3142 64.4379 73.5035 64.6696 79.7702C64.6696 81.8221 65.4832 83.7899 66.9315 85.2408C68.3798 86.6918 70.344 87.5069 72.3922 87.5069C76.7941 87.5069 80.1148 84.0254 80.1148 79.7702C80.1148 77.6813 80.6554 75.5924 81.891 73.8903C82.8177 73.1167 83.9761 72.7298 85.2117 72.7298C89.4591 72.9619 93.0887 69.7899 93.0887 65.6121Z" fill="black"/>
</svg>
