<svg width="431" height="108" viewBox="0 0 431 108" fill="none" xmlns="http://www.w3.org/2000/svg">
<rect x="1" y="1" width="429" height="106" rx="22" fill="#083B57" stroke="#FDFDFD" stroke-width="2"/>
<path d="M106.664 58.1719C106.242 61.7812 104.906 64.5703 102.656 66.5391C100.422 68.4922 97.4453 69.4688 93.7266 69.4688C89.6953 69.4688 86.4609 68.0234 84.0234 65.1328C81.6016 62.2422 80.3906 58.375 80.3906 53.5312V50.25C80.3906 47.0781 80.9531 44.2891 82.0781 41.8828C83.2188 39.4766 84.8281 37.6328 86.9062 36.3516C88.9844 35.0547 91.3906 34.4062 94.125 34.4062C97.75 34.4062 100.656 35.4219 102.844 37.4531C105.031 39.4688 106.305 42.2656 106.664 45.8438H102.141C101.75 43.125 100.898 41.1562 99.5859 39.9375C98.2891 38.7188 96.4688 38.1094 94.125 38.1094C91.25 38.1094 88.9922 39.1719 87.3516 41.2969C85.7266 43.4219 84.9141 46.4453 84.9141 50.3672V53.6719C84.9141 57.375 85.6875 60.3203 87.2344 62.5078C88.7812 64.6953 90.9453 65.7891 93.7266 65.7891C96.2266 65.7891 98.1406 65.2266 99.4688 64.1016C100.812 62.9609 101.703 60.9844 102.141 58.1719H106.664ZM139.078 53.0391C139.078 56.3828 138.516 59.3047 137.391 61.8047C136.266 64.2891 134.672 66.1875 132.609 67.5C130.547 68.8125 128.141 69.4688 125.391 69.4688C122.703 69.4688 120.32 68.8125 118.242 67.5C116.164 66.1719 114.547 64.2891 113.391 61.8516C112.25 59.3984 111.664 56.5625 111.633 53.3438V50.8828C111.633 47.6016 112.203 44.7031 113.344 42.1875C114.484 39.6719 116.094 37.75 118.172 36.4219C120.266 35.0781 122.656 34.4062 125.344 34.4062C128.078 34.4062 130.484 35.0703 132.562 36.3984C134.656 37.7109 136.266 39.625 137.391 42.1406C138.516 44.6406 139.078 47.5547 139.078 50.8828V53.0391ZM134.602 50.8359C134.602 46.7891 133.789 43.6875 132.164 41.5312C130.539 39.3594 128.266 38.2734 125.344 38.2734C122.5 38.2734 120.258 39.3594 118.617 41.5312C116.992 43.6875 116.156 46.6875 116.109 50.5312V53.0391C116.109 56.9609 116.93 60.0469 118.57 62.2969C120.227 64.5312 122.5 65.6484 125.391 65.6484C128.297 65.6484 130.547 64.5938 132.141 62.4844C133.734 60.3594 134.555 57.3203 134.602 53.3672V50.8359ZM172.055 69H167.531L150.352 42.7031V69H145.828V34.875H150.352L167.578 61.2891V34.875H172.055V69ZM205.148 58.1719C204.727 61.7812 203.391 64.5703 201.141 66.5391C198.906 68.4922 195.93 69.4688 192.211 69.4688C188.18 69.4688 184.945 68.0234 182.508 65.1328C180.086 62.2422 178.875 58.375 178.875 53.5312V50.25C178.875 47.0781 179.438 44.2891 180.562 41.8828C181.703 39.4766 183.312 37.6328 185.391 36.3516C187.469 35.0547 189.875 34.4062 192.609 34.4062C196.234 34.4062 199.141 35.4219 201.328 37.4531C203.516 39.4688 204.789 42.2656 205.148 45.8438H200.625C200.234 43.125 199.383 41.1562 198.07 39.9375C196.773 38.7188 194.953 38.1094 192.609 38.1094C189.734 38.1094 187.477 39.1719 185.836 41.2969C184.211 43.4219 183.398 46.4453 183.398 50.3672V53.6719C183.398 57.375 184.172 60.3203 185.719 62.5078C187.266 64.6953 189.43 65.7891 192.211 65.7891C194.711 65.7891 196.625 65.2266 197.953 64.1016C199.297 62.9609 200.188 60.9844 200.625 58.1719H205.148ZM230.602 53.2266H215.812V65.3203H232.992V69H211.312V34.875H232.758V38.5781H215.812V49.5469H230.602V53.2266ZM243.094 55.6406V69H238.594V34.875H251.18C254.914 34.875 257.836 35.8281 259.945 37.7344C262.07 39.6406 263.133 42.1641 263.133 45.3047C263.133 48.6172 262.094 51.1719 260.016 52.9688C257.953 54.75 254.992 55.6406 251.133 55.6406H243.094ZM243.094 51.9609H251.18C253.586 51.9609 255.43 51.3984 256.711 50.2734C257.992 49.1328 258.633 47.4922 258.633 45.3516C258.633 43.3203 257.992 41.6953 256.711 40.4766C255.43 39.2578 253.672 38.625 251.438 38.5781H243.094V51.9609ZM292.453 38.5781H281.484V69H277.008V38.5781H266.062V34.875H292.453V38.5781ZM323.109 53.0391C323.109 56.3828 322.547 59.3047 321.422 61.8047C320.297 64.2891 318.703 66.1875 316.641 67.5C314.578 68.8125 312.172 69.4688 309.422 69.4688C306.734 69.4688 304.352 68.8125 302.273 67.5C300.195 66.1719 298.578 64.2891 297.422 61.8516C296.281 59.3984 295.695 56.5625 295.664 53.3438V50.8828C295.664 47.6016 296.234 44.7031 297.375 42.1875C298.516 39.6719 300.125 37.75 302.203 36.4219C304.297 35.0781 306.688 34.4062 309.375 34.4062C312.109 34.4062 314.516 35.0703 316.594 36.3984C318.688 37.7109 320.297 39.625 321.422 42.1406C322.547 44.6406 323.109 47.5547 323.109 50.8828V53.0391ZM318.633 50.8359C318.633 46.7891 317.82 43.6875 316.195 41.5312C314.57 39.3594 312.297 38.2734 309.375 38.2734C306.531 38.2734 304.289 39.3594 302.648 41.5312C301.023 43.6875 300.188 46.6875 300.141 50.5312V53.0391C300.141 56.9609 300.961 60.0469 302.602 62.2969C304.258 64.5312 306.531 65.6484 309.422 65.6484C312.328 65.6484 314.578 64.5938 316.172 62.4844C317.766 60.3594 318.586 57.3203 318.633 53.3672V50.8359ZM339.914 53.7891C336.055 52.6797 333.242 51.3203 331.477 49.7109C329.727 48.0859 328.852 46.0859 328.852 43.7109C328.852 41.0234 329.922 38.8047 332.062 37.0547C334.219 35.2891 337.016 34.4062 340.453 34.4062C342.797 34.4062 344.883 34.8594 346.711 35.7656C348.555 36.6719 349.977 37.9219 350.977 39.5156C351.992 41.1094 352.5 42.8516 352.5 44.7422H347.977C347.977 42.6797 347.32 41.0625 346.008 39.8906C344.695 38.7031 342.844 38.1094 340.453 38.1094C338.234 38.1094 336.5 38.6016 335.25 39.5859C334.016 40.5547 333.398 41.9062 333.398 43.6406C333.398 45.0312 333.984 46.2109 335.156 47.1797C336.344 48.1328 338.352 49.0078 341.18 49.8047C344.023 50.6016 346.242 51.4844 347.836 52.4531C349.445 53.4062 350.633 54.5234 351.398 55.8047C352.18 57.0859 352.57 58.5938 352.57 60.3281C352.57 63.0938 351.492 65.3125 349.336 66.9844C347.18 68.6406 344.297 69.4688 340.688 69.4688C338.344 69.4688 336.156 69.0234 334.125 68.1328C332.094 67.2266 330.523 65.9922 329.414 64.4297C328.32 62.8672 327.773 61.0938 327.773 59.1094H332.297C332.297 61.1719 333.055 62.8047 334.57 64.0078C336.102 65.1953 338.141 65.7891 340.688 65.7891C343.062 65.7891 344.883 65.3047 346.148 64.3359C347.414 63.3672 348.047 62.0469 348.047 60.375C348.047 58.7031 347.461 57.4141 346.289 56.5078C345.117 55.5859 342.992 54.6797 339.914 53.7891Z" fill="white"/>
</svg>
