<svg width="131" height="140" viewBox="0 0 131 140" fill="none" xmlns="http://www.w3.org/2000/svg">
<path d="M72.1058 12.7273C97.4958 12.7273 117.912 32.7091 117.912 57.2727C117.912 75.0909 107.246 90.3 91.7372 97.4273V127.273H45.9306V108.182H39.3869C32.1232 108.182 26.2993 102.518 26.2993 95.4545V76.3636H16.4836C13.7352 76.3636 12.1647 73.1818 13.7352 71.2091L26.2993 55.1091C26.8758 43.6755 31.9546 32.8961 40.4828 25.0056C49.0109 17.115 60.3344 12.7184 72.1058 12.7273V12.7273ZM54.5685 40.6636H67.198C67.2634 38.7545 67.8524 37.2909 69.0302 36.2727C70.242 35.2956 71.7753 34.7759 73.3492 34.8091C75.3777 34.8091 77.0791 35.4455 78.257 36.5909C79.4349 37.8 79.9584 39.4545 79.9584 41.3636C79.9584 43.4 79.5003 45.1182 78.4533 46.5818C77.5372 48.0455 76.163 49.3182 74.4616 50.3364C71.1243 52.5 68.8339 54.4091 67.5906 56.1273C66.2819 57.7818 65.562 60.4545 65.562 63.6364H78.6496C78.6496 61.6636 78.9114 60.0727 79.5003 58.9273C80.0893 57.7182 81.2017 56.6364 82.8377 55.6182C85.7824 54.0909 88.2036 52.2455 90.1013 49.7C91.999 47.1545 92.9805 44.5455 92.9805 41.3636C92.9805 36.5273 91.2137 32.6455 87.6801 29.7818C84.2119 26.9182 79.4349 25.4545 73.3492 25.4545C67.656 25.4545 63.0754 26.7273 59.5417 29.2091C56.139 31.8182 54.4376 35.4455 54.503 40.4727L54.5685 40.6636V40.6636ZM65.562 82.7273H78.6496V70H65.562V82.7273ZM72.1058 0C42.0698 0 17.2034 21.7636 13.6043 50.2727L3.39598 63.6364H3.19966L3.06879 63.8273C-0.530302 68.6636 -0.988368 75.0273 1.82546 80.3091C4.18123 84.7 8.36926 87.7545 13.2117 88.7091V95.4545C13.2117 107.227 21.5877 117.218 32.8431 120.082V140H104.825V105C121.184 94.3727 131 76.7455 131 57.2727C131 25.6455 104.563 0 72.1058 0Z" fill="black"/>
</svg>
